<svg width="455" height="400" xmlns="http://www.w3.org/2000/svg">
 <!-- Created with Method Draw - http://github.com/duopixel/Method-Draw/ -->
 <g>
  <title>background</title>
  <rect fill="none" id="canvas_background" height="402" width="457" y="-1" x="-1"/>
  <g display="none" overflow="visible" y="0" x="0" height="100%" width="100%" id="canvasGrid">
   <rect fill="url(#gridpattern)" stroke-width="0" y="0" x="0" height="100%" width="100%"/>
  </g>
 </g>
 <g>
  <title>Layer 1</title>
  <rect stroke="#000" id="svg_14" height="404.230811" width="457.615397" y="2.386855" x="-3.115953" stroke-opacity="null" stroke-width="4" fill="#000000"/>
  <path stroke="#000" transform="rotate(4.636247158050537 513.192138671875,27.002273559570312)" id="svg_1" d="m513.192119,-75.117836c-103.828597,0 -187.997181,45.722308 -187.997181,102.121867c0,19.273366 9.950486,37.278391 27.072509,52.652665l-27.072509,42.988244l75.373045,-14.016537c31.408822,12.81043 70.324658,20.493986 112.624137,20.493986c103.828702,0 187.997234,-45.722355 187.997234,-102.118368c0,-56.39955 -84.168518,-102.121867 -187.997234,-102.121867l0,0.000009z" stroke-width="4" fill="#f9f9f9"/>
  <path stroke="#000" id="svg_7" d="m229.788952,88.066233c0,0 0,-11.636531 4.295856,-19.169425c2.46169,-4.255691 10.323328,-6.41862 10.323328,-6.41862c0,0 8.442379,-3.128734 18.673013,-2.46414c7.926013,0.512679 18.174487,4.838124 18.174487,4.838124c0,0 11.324123,0.286047 15.210529,6.132986c4.744854,7.189224 -2.746384,15.574882 -2.746384,15.574882c0,0 0.993808,4.893265 4.815965,9.004071c3.148972,3.379491 9.276,6.175721 9.276,6.175721c0,0 1.161231,0.849318 2.030532,2.464829c0.769372,1.474211 1.21812,3.782024 1.21812,3.782024c0,0 3.775997,2.780791 4.036114,6.226865c0.288436,3.684148 -2.945994,8.06115 -2.945994,8.06115c0,0 -1.474619,6.809711 -4.153509,11.725998c-1.727624,3.191733 -5.076206,5.233351 -5.076206,5.233351c0,0 -7.672882,6.488925 -17.045069,7.987398c-7.088774,1.129713 -16.553654,-2.628876 -16.553654,-2.628876c0,0 4.862499,15.320541 4.313946,30.927129c0.776982,24.495965 -17.780507,45.174064 -25.71912,72.76237c-2.803522,8.311769 -1.075773,17.972714 -1.075773,17.972714c0,0 -0.805052,24.246449 -3.768761,45.83659c-2.415281,17.741947 -7.053218,33.598602 -7.053218,33.598602c0,0 2.838329,9.583747 2.148053,15.762915c2.405674,1.57512 12.698063,8.467819 11.388372,13.978946c-1.96516,0.347668 -5.603426,-1.783693 -5.603426,-1.783693c0,0 -1.666993,1.955735 -3.726094,2.253223c-1.513792,0.234214 -2.928029,0.567407 -3.590734,-1.142672c-3.547818,0.848491 -9.838775,-2.284241 -9.838775,-2.284241c0,0 -4.840916,-3.880176 -7.124329,-8.010006c-1.236085,-2.214211 -3.186149,-0.162943 -0.655469,-5.969216c2.530805,-5.806272 -0.259992,-6.953907 -0.259992,-6.953907c0,0 -5.656822,2.980128 -9.425583,2.800504c-1.852256,-0.101736 -3.248652,-3.441663 -3.248652,-3.441663c0,0 0.680296,-6.970449 0.231423,-13.079587c-0.662456,-8.691005 -2.543405,-17.413165 -2.543405,-17.413165c0,0 -4.531021,-5.359074 -8.064742,-20.718904c-2.443725,-10.603178 -2.703717,-25.470455 -4.413626,-36.41813c-1.709909,-11.135432 -5.144198,-18.45217 -4.862374,-18.281645c-8.235034,11.547064 -18.559111,14.288015 -18.559111,14.288015c0,0 1.684958,17.546607 0.267228,31.853784c-1.360841,13.795187 -5.817133,24.363763 -5.817133,24.363763c0,0 -4.710795,12.725578 -6.12341,21.340763c-1.00541,6.132297 0.200733,7.63587 1.118564,9.160122c5.59619,7.210729 30.547436,-5.8854 36.473357,3.543537c0.609185,0.375652 1.898665,2.143216 3.391249,3.14445c1.585153,1.064233 4.727013,6.321295 3.77949,6.915721c-0.787212,0.516263 -2.479281,-0.070443 -2.479281,-0.070443c0,0 0.455859,3.214893 -0.591345,4.388444c-1.118564,1.196711 -3.726094,0.382958 -3.726094,0.382958c0,0 -1.69918,-1.486204 -4.887325,-1.908313c-3.034945,-0.399087 -7.591042,0.265645 -7.591042,0.265645c0,0 -12.379062,-4.971015 -23.303964,3.254457c-5.761243,3.3198 -10.162892,3.34034 -15.997865,4.137963c-3.248652,0.445958 -4.719902,-2.338693 -4.719902,-2.338693c0,0 -1.07228,1.572363 -3.220208,2.933395c-2.447218,1.517497 -5.058366,3.754591 -5.058366,3.754591c0,0 1.225356,1.666655 3.195381,2.847374c1.243196,0.720149 3.590609,1.173827 3.590609,1.173827c0,0 9.067657,1.552512 17.636538,-1.462631c1.421348,-0.093879 11.808676,6.062129 13.158788,7.376291c1.029488,0.985794 -1.003539,4.027404 -2.728668,4.818824c-8.810534,5.754163 -15.048346,-2.746879 -29.160147,3.152859c-13.022679,1.739717 -18.40591,-0.219326 -22.7483,-3.692281c-2.881744,-2.300094 -3.11691,-7.212797 -3.11691,-7.212797c0,0 -4.171349,-6.156697 -4.502577,-11.882876c-0.142596,-2.52645 5.507114,-11.514944 7.868874,-16.098865c1.94495,-3.739152 4.228363,-8.315353 4.228363,-8.315353c0,0 1.823811,-4.255415 3.059896,-9.684381c0.922572,-3.943176 1.093613,-8.597126 2.230018,-12.375566c1.360716,-4.631343 3.775872,-8.29178 3.775872,-8.29178c0,0 -6.533109,-5.718459 -11.537955,-12.87639c-6.194646,-8.89048 -11.085589,-19.552659 -11.085589,-19.552659c0,0 -16.122497,-13.15775 -28.162721,-28.986697c-7.619487,-9.993863 -13.287037,-25.447295 -13.287037,-25.447295c0,0 -2.823608,3.244669 -6.828782,7.349548c-28.458268,29.166872 -30.736067,88.491372 -39.686329,152.775997c-5.821999,41.815665 -19.716849,68.507644 -28.732856,77.167218c-8.207338,7.892968 -18.50559,8.299913 -18.50559,8.299913c0,0 -6.436922,0.117176 -7.170614,-1.345593c-0.705372,-1.353588 4.324425,-4.318414 4.324425,-4.318414c0,0 9.230589,-5.220806 15.021773,-13.486118c24.250615,-34.610588 26.69434,-134.967743 37.557987,-177.519272c5.490023,-21.503982 12.891435,-79.036243 64.538268,-110.436763c37.530167,-22.817868 118.645419,-38.215746 138.964965,-66.680252c4.082398,-5.718873 8.506628,-11.628536 8.506628,-11.628536z" stroke-opacity="null" stroke-width="2" fill="#f2ba59"/>
  <text stroke="#000" transform="matrix(5.1637225151062,0,0,1,-1326.145621061325,164.3868865966797) " xml:space="preserve" text-anchor="start" font-family="'Trebuchet MS', Gadget, sans-serif" font-size="69" id="svg_8" y="200.4375" x="318.5" stroke-opacity="null" stroke-width="3" fill="#000000"/>
  <text stroke="#000" font-weight="normal" transform="rotate(4.636247158050537 409.0006408691405,22.610717773437536) matrix(0.915740430355072,0,0,0.8071196675300598,30.95749250985682,10.20156133454293) " xml:space="preserve" text-anchor="start" font-family="Arvo, sans-serif" font-size="24" id="svg_15" y="23.395023" x="360.47151" stroke-opacity="null" stroke-width="3" fill="#ffffff">%#@%@</text>
  <line stroke="#000" stroke-linecap="null" stroke-linejoin="null" id="svg_21" y2="393.846154" x2="456.923077" y1="-10.769231" x1="460" fill-opacity="null" stroke-opacity="null" stroke-width="4" fill="none"/>
  <text stroke="#000" font-weight="normal" transform="rotate(4.636247158050537 436.69491577148466,53.3824691772456) matrix(0.915740430355072,0,0,0.8071196675300598,30.95749250985682,10.20156133454293) " xml:space="preserve" text-anchor="start" font-family="Arvo, sans-serif" font-size="24" id="svg_22" y="61.51729" x="390.711854" stroke-opacity="null" stroke-width="3" fill="#ffffff">%#@%@</text>
  <text stroke="#000" font-weight="normal" transform="rotate(4.636247158050537 467.467132568359,84.15406799316364) matrix(0.915740430355072,0,0,0.8071196675300598,30.95749250985682,10.20156133454293) " xml:space="preserve" text-anchor="start" font-family="Arvo, sans-serif" font-size="24" id="svg_23" y="99.639556" x="424.31224" stroke-opacity="null" stroke-width="3" fill="#ffffff">%#@%@</text>
 </g>
</svg>